<?xml version="1.0" standalone="no"?>
<!DOCTYPE svg PUBLIC "-//W3C//DTD SVG 20010904//EN"
 "http://www.w3.org/TR/2001/REC-SVG-20010904/DTD/svg10.dtd">
<svg version="1.0" xmlns="http://www.w3.org/2000/svg"
 width="417.000000pt" height="417.000000pt" viewBox="0 0 417.000000 417.000000"
 preserveAspectRatio="xMidYMid meet">
<metadata>
Created by potrace 1.16, written by Peter Selinger 2001-2019
</metadata>
<g transform="translate(0.000000,417.000000) scale(0.100000,-0.100000)"
fill="#000000" stroke="none">
<path d="M1830 4029 c-737 -95 -1370 -616 -1604 -1321 -64 -194 -87 -328 -93
-555 -4 -131 -1 -236 6 -300 81 -654 477 -1220 1059 -1512 270 -136 509 -197
817 -208 327 -12 622 49 912 187 200 95 353 202 517 360 333 322 536 739 587
1205 14 132 7 391 -15 520 -120 711 -609 1293 -1287 1530 -222 78 -396 105
-654 104 -99 -1 -209 -5 -245 -10z m1415 -914 c17 -7 45 -16 63 -19 32 -5 138
-71 158 -97 6 -8 17 -30 24 -49 7 -19 20 -41 29 -48 13 -10 13 -14 2 -21 -11
-7 -11 -13 0 -32 13 -24 25 -82 35 -174 3 -27 7 -51 9 -53 2 -2 7 23 11 57 3
34 11 61 17 61 6 0 7 -21 3 -57 -4 -32 -7 -67 -7 -78 0 -11 -6 -35 -15 -53 -8
-18 -12 -41 -9 -51 3 -11 1 -22 -5 -26 -15 -9 -12 -25 6 -25 10 0 12 -5 7 -12
-4 -7 -9 -45 -11 -85 -2 -45 -10 -85 -23 -109 -10 -21 -19 -45 -19 -54 0 -18
-63 -84 -72 -75 -3 3 -11 -2 -19 -12 -12 -15 -12 -16 3 -10 23 8 12 -20 -20
-53 -25 -25 -25 -25 -13 -2 18 34 7 38 -14 5 -10 -15 -26 -33 -34 -40 -14 -11
-14 -12 -1 -13 8 -1 1 -9 -17 -18 -38 -21 -77 -68 -68 -83 4 -5 -12 -33 -35
-61 -34 -39 -40 -52 -29 -59 11 -7 11 -9 -2 -9 -18 0 -75 -86 -86 -128 -3 -15
-23 -44 -45 -64 -21 -21 -38 -48 -38 -60 0 -53 -216 -308 -261 -308 -8 0 -30
-16 -49 -35 -21 -21 -48 -37 -69 -41 -20 -4 -64 -27 -97 -50 -65 -47 -90 -52
-156 -32 -26 8 -40 18 -44 34 -3 12 -19 34 -35 50 -16 15 -25 30 -19 34 6 4 6
17 1 35 -8 26 -9 27 -10 7 -1 -13 -5 -21 -10 -18 -15 10 -18 53 -4 72 14 19
16 67 4 98 -6 15 -14 7 -49 -46 -23 -35 -42 -68 -42 -73 0 -4 -13 -22 -30 -39
-16 -17 -48 -53 -72 -79 -60 -69 -86 -80 -198 -81 -85 -1 -101 2 -153 27 -47
24 -57 32 -52 48 4 12 1 21 -9 25 -8 3 -15 18 -15 32 -1 15 -3 47 -6 72 -13
112 -16 264 -6 336 30 234 96 577 136 708 8 27 15 59 15 72 l0 23 -38 -22
c-52 -30 -130 -119 -159 -183 -13 -28 -33 -91 -44 -140 -12 -49 -28 -114 -37
-144 -8 -30 -16 -68 -18 -85 -2 -16 -8 -57 -13 -90 -6 -33 -13 -76 -16 -95 -7
-48 -31 -80 -60 -80 -13 0 -26 -4 -29 -9 -5 -7 -222 35 -236 46 -2 2 1 13 8
24 9 15 10 25 1 40 -6 12 -11 44 -12 73 -1 60 26 317 50 466 9 58 17 125 17
150 1 42 0 45 -24 41 -21 -2 -51 -24 -113 -79 -4 -4 -24 -34 -44 -67 -36 -59
-37 -61 -39 -180 -5 -254 -16 -452 -27 -494 -8 -29 -20 -47 -38 -57 -15 -7
-36 -30 -48 -50 l-22 -37 -78 6 c-87 5 -175 38 -193 70 -28 54 -18 336 22 577
22 132 40 300 40 371 0 35 -5 51 -17 59 -17 9 -16 12 7 31 21 18 35 20 86 17
106 -7 210 -94 228 -190 4 -21 10 -38 14 -38 4 0 32 25 62 56 94 96 180 123
286 88 60 -20 98 -54 130 -116 13 -27 27 -48 30 -48 3 0 38 26 77 58 153 125
219 157 302 147 60 -8 126 -44 155 -84 45 -64 83 -216 81 -326 -2 -141 -52
-703 -66 -743 -7 -21 6 -92 17 -92 23 0 147 139 176 196 l31 61 -5 189 c-3
104 -7 230 -10 279 -2 50 -6 212 -8 360 -2 149 -7 290 -11 315 -3 25 -2 107 5
184 8 107 8 142 -2 153 -7 9 -8 17 -2 21 5 4 14 16 20 26 15 29 60 38 129 27
33 -5 78 -8 100 -8 36 2 42 -1 55 -30 8 -18 18 -33 23 -33 4 0 47 20 96 44
168 85 349 121 506 103 39 -5 84 -15 100 -22z"/>
<path d="M2930 2900 c-14 -5 -61 -19 -105 -31 -104 -29 -205 -69 -205 -80 0
-5 14 -21 30 -36 17 -14 30 -33 30 -42 0 -9 15 -45 32 -81 36 -73 41 -120 54
-540 3 -113 7 -207 9 -209 9 -8 136 116 145 142 5 16 14 26 20 22 12 -8 110
90 110 111 0 18 -9 18 -32 -3 -10 -9 -18 -11 -18 -5 0 6 6 15 14 19 15 9 46
65 46 85 0 7 23 40 50 73 33 40 50 69 50 87 0 15 15 51 33 80 37 59 71 137 82
185 13 62 -48 160 -129 207 -38 22 -56 26 -118 25 -40 -1 -84 -5 -98 -9z"/>
</g>
</svg>
